<?xml version="1.0" encoding="UTF-8"?>
<svg width="436px" height="122px" viewBox="0 0 436 122" version="1.1" xmlns="http://www.w3.org/2000/svg" xmlns:xlink="http://www.w3.org/1999/xlink">
    <title>LOGO_transparente_bannerSVG</title>
    <defs>
        <filter id="filter-1">
            <feColorMatrix in="SourceGraphic" type="matrix" values="0 0 0 0 1.000000 0 0 0 0 1.000000 0 0 0 0 1.000000 0 0 0 1.000000 0"></feColorMatrix>
        </filter>
        <polygon id="path-2" points="0.00121958042 0.001525 435.996951 0.001525 435.996951 122.00305 0.00121958042 122.00305"></polygon>
    </defs>
    <g id="Page-1" stroke="none" stroke-width="1" fill="none" fill-rule="evenodd" opacity="0.0541992188">
        <g id="LOGO_transparente_banner" filter="url(#filter-1)">
            <g id="Group-3-Copy">
                <mask id="mask-3" fill="white">
                    <use xlink:href="#path-2"></use>
                </mask>
                <g id="Clip-2"></g>
                <path d="M335.590115,91.440525 L359.600604,74.982725 L364.451485,80.329375 C363.155681,81.900125 362.225751,83.342775 361.664744,84.666475 C361.091541,85.996275 360.811038,87.356575 360.811038,88.762625 C360.811038,93.737175 363.170926,97.854675 367.890702,101.127325 C372.60438,104.393875 378.732772,106.025625 386.281975,106.025625 C394.526338,106.025625 401.115122,104.302375 406.045276,100.837575 C410.978478,97.381925 413.442031,92.813025 413.442031,87.146125 C413.442031,84.059525 412.634059,81.335875 411.015066,78.950775 C409.402171,76.577875 406.944716,74.494725 403.660996,72.707425 C401.502338,71.575875 396.627066,70.117975 389.022982,68.333725 C383.635485,67.092375 379.354758,66.037075 376.171653,65.173925 C363.722786,61.821975 354.923513,57.634325 349.773835,52.607925 C344.630255,47.581525 342.053891,40.932525 342.053891,32.663975 C342.053891,23.260825 346.0968,15.465025 354.185667,9.279625 C362.268436,3.097275 372.644017,0.001525 385.312408,0.001525 C396.035569,0.001525 405.359262,1.825425 413.283485,5.470175 C421.210758,9.121025 428.049555,14.751325 433.82122,22.373275 L415.30494,39.642375 L410.292464,35.183275 C410.774199,33.993775 411.115681,33.023875 411.301667,32.264425 C411.487653,31.504975 411.61266,30.751625 411.661443,29.995225 C411.661443,25.835025 409.197891,22.281775 404.264688,19.332425 C399.334534,16.392225 393.230534,14.919075 385.955737,14.919075 C379.217555,14.919075 373.869695,16.227525 369.906059,18.850525 C365.942422,21.473525 363.966702,24.971875 363.966702,29.348625 C363.966702,35.994575 371.942758,41.158225 387.89487,44.833475 C392.047541,45.806425 395.24894,46.562825 397.51431,47.099625 C411.045555,50.561375 420.838786,55.157725 426.90315,60.879525 C432.964464,66.607425 435.998171,74.095175 435.998171,83.336675 C435.998171,94.902275 431.540604,104.238325 422.619373,111.341775 C413.695094,118.448275 401.743206,122.004575 386.76066,122.004575 C374.741695,122.004575 364.72894,119.613375 356.728492,114.830975 C348.728045,110.045525 341.67887,102.249725 335.590115,91.440525 L335.590115,91.440525 Z M259.59501,54.556875 L271.726786,54.556875 C284.337248,54.556875 292.651737,53.123375 296.664157,50.259425 C300.682674,47.395475 302.691933,42.472775 302.691933,35.506575 C302.691933,29.613975 300.600352,25.008475 296.420241,21.680925 C292.243178,18.362525 286.444073,16.700275 279.001583,16.700275 L259.598059,16.700275 L259.598059,54.556875 L259.59501,54.556875 Z M230.331178,118.835625 L230.331178,111.707775 C232.916688,111.488175 234.694227,110.826325 235.666842,109.719175 C236.633359,108.615075 237.124241,106.574625 237.124241,103.597825 L237.124241,18.075825 C237.124241,15.053275 236.636408,13.000625 235.666842,11.917875 C234.694227,10.838175 232.916688,10.185475 230.331178,9.971975 L230.331178,2.752625 L284.41652,2.752625 C296.97515,2.752625 306.795821,5.567775 313.881583,11.185875 C320.970394,16.803975 324.510227,24.477775 324.510227,34.204225 C324.510227,42.094575 322.220464,48.838125 317.637891,54.431825 C313.058366,60.025525 306.91473,63.548275 299.206982,65.009225 L322.49487,104.085825 C324.162646,106.782025 325.775541,108.758425 327.345751,109.999775 C328.906814,111.241125 330.766674,112.028025 332.922283,112.348275 L332.922283,118.829525 L305.274394,118.829525 L276.330702,68.169025 L259.756604,68.169025 L259.756604,99.706025 C259.756604,104.787325 260.226143,107.986775 261.171317,109.304375 C262.113443,110.637225 263.854394,111.430225 266.388073,111.701675 L266.388073,118.829525 L230.331178,118.829525 L230.331178,118.835625 Z M195.972548,104.732425 C202.326562,104.732425 206.668269,104.003475 208.98852,102.545575 C211.302674,101.081575 212.921667,98.440275 213.836352,94.600325 L221.678255,94.600325 L221.678255,118.835625 L124.828324,118.835625 L124.828324,111.707775 C127.416884,111.488175 129.191373,110.826325 130.163989,109.719175 C131.127457,108.615075 131.618338,106.574625 131.618338,103.597825 L131.618338,18.075825 C131.618338,15.053275 131.127457,13.000625 130.163989,11.917875 C129.191373,10.838175 127.416884,10.185475 124.828324,9.971975 L124.828324,2.752625 L217.315206,2.752625 L217.315206,25.694725 L210.202003,25.694725 C209.232436,22.400725 207.896996,20.143725 206.19873,18.929825 C204.497415,17.712875 200.823429,17.102875 195.161527,17.102875 L153.927513,17.102875 L153.927513,46.453025 L184.087737,46.453025 C190.011849,46.453025 193.868772,45.913175 195.649359,44.830425 C197.429947,43.744625 198.64038,41.749925 199.286758,38.828025 L205.915178,38.828025 L205.915178,67.525475 L199.286758,67.525475 C198.853807,64.557825 197.926926,62.538725 196.500017,61.489525 C195.070059,60.431175 192.359541,59.906575 188.371513,59.906575 L153.927513,59.906575 L153.927513,104.732425 L195.972548,104.732425 Z M113.019737,118.835625 C102.458171,119.814675 94.1985622,120.497875 88.2439608,120.906575 C82.2832615,121.315275 77.6945902,121.510475 74.4596531,121.510475 C62.7089958,121.510475 52.8456392,120.446025 44.8665343,118.314075 C36.8904783,116.176025 29.8047161,112.760025 23.6061986,108.056925 C16.0569958,102.329025 10.2395972,95.115775 6.14180699,86.414125 C2.04706573,77.709425 0.00121958042,68.254425 0.00121958042,58.039975 C0.00121958042,40.911175 5.40396084,26.951325 16.2094434,16.169575 C27.0118769,5.393925 41.0157091,0.001525 58.2056951,0.001525 C68.611765,0.001525 77.8378909,1.416725 85.8962685,4.256275 C93.9576951,7.095825 101.625807,11.591525 108.897555,17.749475 L87.5548979,39.316025 L81.0911217,34.695275 C81.6826182,33.179425 82.1125203,31.938075 82.3838769,30.962075 C82.6552336,29.992175 82.7832895,29.180875 82.7832895,28.534275 C82.7832895,24.968825 80.5514573,21.915775 76.0755972,19.375125 C71.602786,16.834475 66.0506462,15.565675 59.4191776,15.565675 C48.372828,15.565675 39.585751,19.253125 33.0640448,26.628025 C26.5423385,34.002925 23.2830098,43.988625 23.2830098,56.579025 C23.2830098,71.771075 27.9722965,83.885675 37.3508699,92.935025 C46.7263944,101.987425 59.3124643,106.513625 75.1029818,106.513625 C76.9933315,106.513625 80.0605762,106.434325 84.3169119,106.269625 C84.9145063,106.269625 85.371849,106.245225 85.6950378,106.193375 L85.6950378,69.227375 C85.6950378,66.201775 85.2072056,64.152175 84.2376392,63.063325 C83.2680727,61.986675 81.4905343,61.309575 78.9019748,61.038125 L78.9019748,53.901125 L113.016688,53.901125 L113.016688,61.038125 C110.644604,61.468175 109.043905,62.200175 108.208492,63.228025 C107.370031,64.255875 106.955373,66.253625 106.955373,69.224325 L106.955373,104.247475 C106.955373,107.815975 107.318199,109.978425 108.046898,110.734825 C108.769499,111.488175 110.431178,112.085975 113.016688,112.516025 L113.016688,118.835625 L113.019737,118.835625 Z" id="Fill-1" fill="#2C3393" mask="url(#mask-3)"></path>
            </g>
        </g>
    </g>
</svg>