<?xml version="1.0" encoding="UTF-8"?>
<svg width="698px" height="108px" viewBox="0 0 698 108" version="1.1" xmlns="http://www.w3.org/2000/svg" xmlns:xlink="http://www.w3.org/1999/xlink">
    <title>1981@2x</title>
    <defs>
        <rect id="path-1" x="0" y="0" width="686" height="96" rx="11"></rect>
        <filter x="-1.2%" y="-8.3%" width="102.9%" height="120.8%" filterUnits="objectBoundingBox" id="filter-2">
            <feOffset dx="2" dy="2" in="SourceAlpha" result="shadowOffsetOuter1"></feOffset>
            <feGaussianBlur stdDeviation="3" in="shadowOffsetOuter1" result="shadowBlurOuter1"></feGaussianBlur>
            <feColorMatrix values="0 0 0 0 0   0 0 0 0 0   0 0 0 0 0  0 0 0 0.2 0" type="matrix" in="shadowBlurOuter1"></feColorMatrix>
        </filter>
        <linearGradient x1="0%" y1="44.9828091%" x2="100%" y2="44.9828091%" id="linearGradient-3">
            <stop stop-color="#FFEC00" offset="0%"></stop>
            <stop stop-color="#FFA800" offset="53.3973123%"></stop>
            <stop stop-color="#FFE802" offset="100%"></stop>
        </linearGradient>
        <polygon id="path-4" points="17.5944131 -1.9447958 22.0106214 -1.9447958 22.0106214 7.98385516 17.5944131 7.98385516"></polygon>
        <linearGradient x1="0%" y1="44.9828091%" x2="100%" y2="44.9828091%" id="linearGradient-6">
            <stop stop-color="#FFEC00" offset="0%"></stop>
            <stop stop-color="#FFA800" offset="53.3973123%"></stop>
            <stop stop-color="#FFE802" offset="100%"></stop>
        </linearGradient>
        <polygon id="path-7" points="12.419474 -3.83555479 15.7617281 -3.83555479 15.7617281 17.7201084 12.419474 17.7201084"></polygon>
        <linearGradient x1="0%" y1="44.9828091%" x2="100%" y2="44.9828091%" id="linearGradient-9">
            <stop stop-color="#FFEC00" offset="0%"></stop>
            <stop stop-color="#FFA800" offset="53.3973123%"></stop>
            <stop stop-color="#FFE802" offset="100%"></stop>
        </linearGradient>
        <polygon id="path-10" points="17.5944131 -1.9447958 22.0106214 -1.9447958 22.0106214 7.98385516 17.5944131 7.98385516"></polygon>
        <polygon id="path-12" points="12.419474 -3.83555479 15.7617281 -3.83555479 15.7617281 17.7201084 12.419474 17.7201084"></polygon>
    </defs>
    <g id="Page-1" stroke="none" stroke-width="1" fill="none" fill-rule="evenodd">
        <g id="1981" transform="translate(4.000000, 4.000000)">
            <g id="Rectangle-Copy-2">
                <use fill="black" fill-opacity="1" filter="url(#filter-2)" xlink:href="#path-1"></use>
                <use fill="#2C3394" fill-rule="evenodd" xlink:href="#path-1"></use>
            </g>
            <text id="Generando-soluciones" font-family="Montserrat-Medium, Montserrat" font-size="16" font-weight="400" letter-spacing="0.965126667" fill="#FFFFFF">
                <tspan x="129.64065" y="31">Generando soluciones integrales e innovadoras </tspan>
                <tspan x="230.603917" y="50">para el sector energético</tspan>
                <tspan x="264.30955" y="69" font-family="Montserrat-Bold, Montserrat" font-size="24" font-weight="bold" letter-spacing="1.44769">DESDE 1981</tspan>
                <tspan x="422.69045" y="69" font-size="24" letter-spacing="1.44769"></tspan>
            </text>
            <g id="Group-4" transform="translate(232.000000, 64.000000)">
                <g id="ara">
                    <g id="Group" transform="translate(13.500296, 6.682867) rotate(-90.000000) translate(-13.500296, -6.682867) translate(5.684506, -3.067133)"></g>
                    <g id="Group-9" transform="translate(13.970948, 6.683092) rotate(-90.000000) translate(-13.970948, -6.683092) translate(6.155159, -2.525241)"></g>
                    <path d="M21.9869939,15.0119125 C20.8213272,15.2051756 19.7715772,14.8854388 18.9634105,14.109544 C18.1519939,13.3450177 17.6720772,12.1982283 17.4857439,11.2532283 L17.4738272,11.2006493 C17.3178272,10.3735967 17.3384105,9.91459668 17.3384105,9.91459668 C17.2929105,8.09564931 17.9732439,6.43301773 18.7857439,5.84470194 C19.1789939,5.53491247 19.5733272,5.51075457 19.8376605,5.63438615 C20.1139105,5.78075457 20.2709939,6.04933352 20.3446605,6.38185983 C20.4822439,7.05685983 20.3641605,7.81143878 20.4605772,8.38412299 C20.5396605,8.94685983 20.6447439,9.37175457 20.6631605,9.85491247 C20.6880772,10.2513861 20.6382439,10.4474914 20.7184105,11.0457546 C20.7834105,11.5814914 20.9415772,12.2309125 21.1419939,12.8291756 C21.3391605,13.4302809 21.5612439,13.9773861 21.7226605,14.3724388 C21.8819105,14.757544 21.9869939,15.0119125 21.9869939,15.0119125" id="Fill-1" fill="url(#linearGradient-3)" transform="translate(19.661623, 10.315829) rotate(-90.000000) translate(-19.661623, -10.315829) "></path>
                    <g id="Group-5" transform="translate(19.184506, 3.433092) rotate(-90.000000) translate(-19.184506, -3.433092) translate(15.631875, -0.900241)"></g>
                    <mask id="mask-5" fill="white">
                        <use xlink:href="#path-4"></use>
                    </mask>
                    <g id="Clip-4" transform="translate(19.802517, 3.019530) rotate(-90.000000) translate(-19.802517, -3.019530) "></g>
                    <path d="M17.5943949,7.98126385 C18.2032283,6.36836911 18.5758949,5.06384279 18.6983116,4.16147437 C18.8283116,3.2576849 18.7665616,2.7446849 18.7253949,2.56279016 L18.7232283,2.55000069 C18.6853116,2.32831648 18.6820616,2.21463227 18.6820616,2.21463227 C18.6343949,1.73573753 18.6853116,1.38047437 18.7741449,0.917211214 C18.8824783,0.444000688 18.8207283,-0.236683523 18.9182283,-0.931578259 C18.9756449,-1.275473 19.0969783,-1.572473 19.3342283,-1.76999931 C19.5671449,-1.96326247 19.9159783,-2.01868352 20.3092283,-1.82115721 C21.1141449,-1.45168352 21.9168949,0.0461059511 21.9981449,1.85936911 C22.0371449,2.55994806 21.9862283,3.287527 21.8258949,3.99236911 C21.6558116,4.73700069 21.4272283,5.2556849 21.1607283,5.74594806 C20.6223116,6.70231648 19.9853116,7.23094806 19.4458116,7.52794806 C18.9030616,7.82636911 18.4383116,7.91731648 18.1122283,7.95710595 C17.7861449,7.99547437 17.5943949,7.98126385 17.5943949,7.98126385" id="Fill-3" fill="url(#linearGradient-6)" mask="url(#mask-5)" transform="translate(19.802517, 3.019512) rotate(-90.000000) translate(-19.802517, -3.019512) "></path>
                    <g id="Group-8" mask="url(#mask-5)">
                        <g transform="translate(13.500296, 7.224759) rotate(-90.000000) translate(-13.500296, -7.224759) translate(10.658191, -1.441908)"></g>
                    </g>
                    <mask id="mask-8" fill="white">
                        <use xlink:href="#path-7"></use>
                    </mask>
                    <g id="Clip-7" transform="translate(14.090601, 6.942277) rotate(-90.000000) translate(-14.090601, -6.942277) "></g>
                    <path d="M14.8396629,17.7203312 C13.1604962,12.2236996 12.6729962,7.86675223 12.5061629,5.69680487 L12.5018295,5.63143645 C12.4303295,4.62675223 12.4281629,4.08817329 12.4281629,4.08817329 C12.3252462,-0.251721449 13.1290795,-3.80719513 14.0455795,-3.8357776 C14.9707462,-3.86261619 15.6543295,-0.498984607 15.7496629,3.66612066 C15.8200795,6.89617329 15.5633295,10.372068 15.3271629,13.0834364 C15.0823295,15.7919628 14.8396629,17.7203312 14.8396629,17.7203312" id="Fill-6" fill="url(#linearGradient-9)" mask="url(#mask-8)" transform="translate(14.090378, 6.942277) rotate(-90.000000) translate(-14.090378, -6.942277) "></path>
                </g>
                <g id="Group" transform="translate(196.000000, 0.000000)">
                    <g id="ara-copy" transform="translate(13.500000, 6.500000) scale(-1, 1) translate(-13.500000, -6.500000) ">
                        <g id="Group" transform="translate(13.500296, 6.682867) rotate(-90.000000) translate(-13.500296, -6.682867) translate(5.684506, -3.067133)"></g>
                        <g id="Group-9" transform="translate(13.970948, 6.683092) rotate(-90.000000) translate(-13.970948, -6.683092) translate(6.155159, -2.525241)"></g>
                        <path d="M21.9869939,15.0119125 C20.8213272,15.2051756 19.7715772,14.8854388 18.9634105,14.109544 C18.1519939,13.3450177 17.6720772,12.1982283 17.4857439,11.2532283 L17.4738272,11.2006493 C17.3178272,10.3735967 17.3384105,9.91459668 17.3384105,9.91459668 C17.2929105,8.09564931 17.9732439,6.43301773 18.7857439,5.84470194 C19.1789939,5.53491247 19.5733272,5.51075457 19.8376605,5.63438615 C20.1139105,5.78075457 20.2709939,6.04933352 20.3446605,6.38185983 C20.4822439,7.05685983 20.3641605,7.81143878 20.4605772,8.38412299 C20.5396605,8.94685983 20.6447439,9.37175457 20.6631605,9.85491247 C20.6880772,10.2513861 20.6382439,10.4474914 20.7184105,11.0457546 C20.7834105,11.5814914 20.9415772,12.2309125 21.1419939,12.8291756 C21.3391605,13.4302809 21.5612439,13.9773861 21.7226605,14.3724388 C21.8819105,14.757544 21.9869939,15.0119125 21.9869939,15.0119125" id="Fill-1" fill="url(#linearGradient-3)" transform="translate(19.661623, 10.315829) rotate(-90.000000) translate(-19.661623, -10.315829) "></path>
                        <g id="Group-5" transform="translate(19.184506, 3.433092) rotate(-90.000000) translate(-19.184506, -3.433092) translate(15.631875, -0.900241)"></g>
                        <mask id="mask-11" fill="white">
                            <use xlink:href="#path-10"></use>
                        </mask>
                        <g id="Clip-4" transform="translate(19.802517, 3.019530) rotate(-90.000000) translate(-19.802517, -3.019530) "></g>
                        <path d="M17.5943949,7.98126385 C18.2032283,6.36836911 18.5758949,5.06384279 18.6983116,4.16147437 C18.8283116,3.2576849 18.7665616,2.7446849 18.7253949,2.56279016 L18.7232283,2.55000069 C18.6853116,2.32831648 18.6820616,2.21463227 18.6820616,2.21463227 C18.6343949,1.73573753 18.6853116,1.38047437 18.7741449,0.917211214 C18.8824783,0.444000688 18.8207283,-0.236683523 18.9182283,-0.931578259 C18.9756449,-1.275473 19.0969783,-1.572473 19.3342283,-1.76999931 C19.5671449,-1.96326247 19.9159783,-2.01868352 20.3092283,-1.82115721 C21.1141449,-1.45168352 21.9168949,0.0461059511 21.9981449,1.85936911 C22.0371449,2.55994806 21.9862283,3.287527 21.8258949,3.99236911 C21.6558116,4.73700069 21.4272283,5.2556849 21.1607283,5.74594806 C20.6223116,6.70231648 19.9853116,7.23094806 19.4458116,7.52794806 C18.9030616,7.82636911 18.4383116,7.91731648 18.1122283,7.95710595 C17.7861449,7.99547437 17.5943949,7.98126385 17.5943949,7.98126385" id="Fill-3" fill="url(#linearGradient-6)" mask="url(#mask-11)" transform="translate(19.802517, 3.019512) rotate(-90.000000) translate(-19.802517, -3.019512) "></path>
                        <g id="Group-8" mask="url(#mask-11)">
                            <g transform="translate(13.500296, 7.224759) rotate(-90.000000) translate(-13.500296, -7.224759) translate(10.658191, -1.441908)"></g>
                        </g>
                        <mask id="mask-13" fill="white">
                            <use xlink:href="#path-12"></use>
                        </mask>
                        <g id="Clip-7" transform="translate(14.090601, 6.942277) rotate(-90.000000) translate(-14.090601, -6.942277) "></g>
                        <path d="M14.8396629,17.7203312 C13.1604962,12.2236996 12.6729962,7.86675223 12.5061629,5.69680487 L12.5018295,5.63143645 C12.4303295,4.62675223 12.4281629,4.08817329 12.4281629,4.08817329 C12.3252462,-0.251721449 13.1290795,-3.80719513 14.0455795,-3.8357776 C14.9707462,-3.86261619 15.6543295,-0.498984607 15.7496629,3.66612066 C15.8200795,6.89617329 15.5633295,10.372068 15.3271629,13.0834364 C15.0823295,15.7919628 14.8396629,17.7203312 14.8396629,17.7203312" id="Fill-6" fill="url(#linearGradient-9)" mask="url(#mask-13)" transform="translate(14.090378, 6.942277) rotate(-90.000000) translate(-14.090378, -6.942277) "></path>
                    </g>
                </g>
            </g>
        </g>
    </g>
</svg>