<?xml version="1.0" encoding="UTF-8"?>
<svg width="16px" height="16px" viewBox="0 0 16 16" version="1.1" xmlns="http://www.w3.org/2000/svg" xmlns:xlink="http://www.w3.org/1999/xlink">
    <title>buscar</title>
    <defs>
        <filter id="filter-1">
            <feColorMatrix in="SourceGraphic" type="matrix" values="0 0 0 0 0.172549 0 0 0 0 0.200000 0 0 0 0 0.580392 0 0 0 1.000000 0"></feColorMatrix>
        </filter>
    </defs>
    <g id="Page-1" stroke="none" stroke-width="1" fill="none" fill-rule="evenodd">
        <g id="buscar" filter="url(#filter-1)">
            <g id="search" fill="#000000" fill-rule="nonzero">
                <path d="M15.78125,13.8074074 L12.665625,10.6978558 C12.525,10.5575049 12.334375,10.4795322 12.134375,10.4795322 L11.625,10.4795322 C12.4875,9.3785575 13,7.99376218 13,6.48732943 C13,2.9037037 10.090625,0 6.5,0 C2.909375,0 0,2.9037037 0,6.48732943 C0,10.0709552 2.909375,12.9746589 6.5,12.9746589 C8.009375,12.9746589 9.396875,12.4631579 10.5,11.6023392 L10.5,12.1107212 C10.5,12.3103314 10.578125,12.5005848 10.71875,12.6409357 L13.834375,15.7504873 C14.128125,16.0436647 14.603125,16.0436647 14.89375,15.7504873 L15.778125,14.8678363 C16.071875,14.5746589 16.071875,14.1005848 15.78125,13.8074074 Z M6.5,10.4795322 C4.290625,10.4795322 2.5,8.69551657 2.5,6.48732943 C2.5,4.28226121 4.2875,2.49512671 6.5,2.49512671 C8.709375,2.49512671 10.5,4.2791423 10.5,6.48732943 C10.5,8.69239766 8.7125,10.4795322 6.5,10.4795322 Z" id="Shape"></path>
            </g>
        </g>
    </g>
</svg>