<?xml version="1.0" encoding="UTF-8"?>
<svg width="191px" height="37px" viewBox="0 0 191 37" version="1.1" xmlns="http://www.w3.org/2000/svg" xmlns:xlink="http://www.w3.org/1999/xlink">
    <title>logo_1981</title>
    <defs>
        <linearGradient x1="0%" y1="43.1025902%" x2="12.1782471%" y2="43.1025902%" id="linearGradient-1">
            <stop stop-color="#1B2281" offset="0%"></stop>
            <stop stop-color="#2C3394" offset="100%"></stop>
        </linearGradient>
        <linearGradient x1="0%" y1="44.9828091%" x2="100%" y2="44.9828091%" id="linearGradient-2">
            <stop stop-color="#FFEC00" offset="0%"></stop>
            <stop stop-color="#FFA800" offset="53.3973123%"></stop>
            <stop stop-color="#FFE802" offset="100%"></stop>
        </linearGradient>
        <polygon id="path-3" points="3.49031354 -0.376306093 4.38338887 -0.376306093 4.38338887 1.59756526 3.49031354 1.59756526"></polygon>
        <linearGradient x1="0%" y1="44.9828091%" x2="100%" y2="44.9828091%" id="linearGradient-5">
            <stop stop-color="#FFEC00" offset="0%"></stop>
            <stop stop-color="#FFA800" offset="53.3973123%"></stop>
            <stop stop-color="#FFE802" offset="100%"></stop>
        </linearGradient>
        <polygon id="path-6" points="2.46334378 -0.738779344 3.13923687 -0.738779344 3.13923687 3.54660708 2.46334378 3.54660708"></polygon>
        <linearGradient x1="0%" y1="44.9828091%" x2="100%" y2="44.9828091%" id="linearGradient-8">
            <stop stop-color="#FFEC00" offset="0%"></stop>
            <stop stop-color="#FFA800" offset="53.3973123%"></stop>
            <stop stop-color="#FFE802" offset="100%"></stop>
        </linearGradient>
        <linearGradient x1="0%" y1="44.9828091%" x2="100%" y2="44.9828091%" id="linearGradient-9">
            <stop stop-color="#FFEC00" offset="0%"></stop>
            <stop stop-color="#FFA800" offset="53.3973123%"></stop>
            <stop stop-color="#FFE802" offset="100%"></stop>
        </linearGradient>
        <polygon id="path-10" points="3.05288563 -0.266646574 3.94596096 -0.266646574 3.94596096 1.48790574 3.05288563 1.48790574"></polygon>
        <linearGradient x1="0%" y1="44.9828091%" x2="100%" y2="44.9828091%" id="linearGradient-12">
            <stop stop-color="#FFEC00" offset="0%"></stop>
            <stop stop-color="#FFA800" offset="53.3973123%"></stop>
            <stop stop-color="#FFE802" offset="100%"></stop>
        </linearGradient>
        <polygon id="path-13" points="2.1520893 -0.500702321 2.82798239 -0.500702321 2.82798239 3.30853006 2.1520893 3.30853006"></polygon>
        <linearGradient x1="0%" y1="44.9828091%" x2="100%" y2="44.9828091%" id="linearGradient-15">
            <stop stop-color="#FFEC00" offset="0%"></stop>
            <stop stop-color="#FFA800" offset="53.3973123%"></stop>
            <stop stop-color="#FFE802" offset="100%"></stop>
        </linearGradient>
        <linearGradient x1="0%" y1="44.9828091%" x2="100%" y2="44.9828091%" id="linearGradient-16">
            <stop stop-color="#FFEC00" offset="0%"></stop>
            <stop stop-color="#FFA800" offset="53.3973123%"></stop>
            <stop stop-color="#FFE802" offset="100%"></stop>
        </linearGradient>
        <polygon id="path-17" points="0.000369230769 0.0004625 131.999077 0.0004625 131.999077 37.000925 0.000369230769 37.000925"></polygon>
    </defs>
    <g id="Page-1" stroke="none" stroke-width="1" fill="none" fill-rule="evenodd">
        <g id="logo_1981">
            <g id="Group-3" transform="translate(137.000000, 0.000000)">
                <g id="Group-2" transform="translate(0.709385, 0.000000)">
                    <path d="M0.164662881,-3.55271368e-15 C0.998706055,3.12352373 2.55591774,4.91759277 4.83629793,5.38220714 L49.1397692,5.38177206 C50.7966235,5.38177206 52.1397692,6.72491781 52.1397692,8.38177206 L52.1397692,28.45 C52.1397692,30.1068542 50.7966235,31.45 49.1397692,31.45 L6.0979528,31.45 C6.0858069,31.45 6.07367764,31.4500306 6.061565,31.4500917 L6.0979528,31.45 C3.12220898,31.45 1.14444568,33.2846621 0.164662881,36.9539863 C0.11339089,34.7637628 0.11339089,32.9137628 0.164662881,31.4039863 L0.164662881,31.4039863 L0.201208888,31.403 L0.201208888,5.549 L0.164662881,5.55 C0.11339089,4.04022353 0.11339089,2.19022353 0.164662881,-3.55271368e-15 Z" id="Combined-Shape" fill="url(#linearGradient-1)"></path>
                    <g id="s" transform="translate(9.290615, 9.000000)">
                        <g id="Group-5" transform="translate(0.000000, 0.195682)">
                            <path d="M7.53622317,4.68409617 C7.55230466,4.58243612 7.57700123,4.51538375 7.61031289,4.48293905 C7.64362454,4.45049435 7.68899731,4.43427201 7.7464312,4.43427201 C7.80616244,4.43427201 7.94802414,4.46833894 8.17201631,4.5364728 C8.39600847,4.60460666 8.54361356,4.64408104 8.61483158,4.65489594 C8.73429407,4.67436276 8.8617973,4.68409617 8.99734127,4.68409617 C9.42924411,4.68409617 9.78246252,4.56351005 10.0569965,4.32233781 C10.3315305,4.08116556 10.4687975,3.79403001 10.4687975,3.46093113 C10.4687975,3.28572977 10.4257221,3.11809884 10.3395712,2.95803834 C10.2534204,2.79797784 10.1305119,2.65900639 9.97084567,2.54112399 C9.81117946,2.4232416 9.51309758,2.25398843 9.07660004,2.0333645 C8.5413162,1.76299203 8.20245627,1.54669406 8.06002023,1.38447058 C7.96123394,1.27415861 7.9118408,1.15195026 7.9118408,1.01784552 C7.9118408,0.842644158 7.98995088,0.686368872 8.14617106,0.549019659 C8.30239123,0.411670446 8.49996381,0.342995839 8.73888878,0.342995839 C8.95024549,0.342995839 9.15471013,0.393825863 9.3522827,0.49548591 C9.54985527,0.597145958 9.70205508,0.734495171 9.80888211,0.90753355 C9.91570914,1.08057193 9.98979885,1.31309225 10.0311513,1.60509451 L10.0311513,1.60509451 L10.1586545,1.60509451 L10.1586545,0.083438271 L10.0311513,0.083438271 C10.0081777,0.185098318 9.97773774,0.252691435 9.93983137,0.286217621 C9.901925,0.319743807 9.8531062,0.3365069 9.79337496,0.3365069 C9.74053578,0.3365069 9.64979024,0.309469653 9.52113833,0.25539516 C9.24315831,0.140757234 8.98011111,0.083438271 8.73199671,0.083438271 C8.33455421,0.083438271 8.00718105,0.197535452 7.74987723,0.425729814 C7.49257342,0.653924176 7.36392151,0.925918877 7.36392151,1.24171392 C7.36392151,1.42340422 7.40757126,1.58995366 7.49487077,1.74136224 C7.58217028,1.89277082 7.71024785,2.03120152 7.87910348,2.15665435 C8.04795911,2.28210717 8.33225685,2.45027885 8.73199671,2.66116937 C9.13173657,2.87205989 9.37640493,3.00994985 9.4660018,3.07483924 C9.59924842,3.17001035 9.69746036,3.27275189 9.76063764,3.38306386 C9.82381492,3.49337582 9.85540356,3.6026063 9.85540356,3.71075529 C9.85540356,3.90542346 9.77212442,4.07413588 9.60556614,4.21689254 C9.43900787,4.35964921 9.21214401,4.43102754 8.92497457,4.43102754 C8.67686018,4.43102754 8.44884765,4.37911602 8.24093697,4.275293 C8.0330263,4.17146997 7.87852914,4.04115044 7.7774455,3.88433441 C7.67636186,3.72751838 7.59595441,3.49121284 7.53622317,3.1754178 L7.53622317,3.1754178 L7.40871994,3.1754178 L7.40871994,4.68409617 L7.53622317,4.68409617 Z M12.7651053,4.58351761 L12.7651053,4.46347223 L12.5962496,4.46347223 C12.4859766,4.46347223 12.3814469,4.43751648 12.2826606,4.38560496 C12.2091452,4.34667133 12.1609008,4.30016726 12.1379272,4.24609277 C12.1080616,4.17471444 12.0931288,4.02763182 12.0931288,3.8048449 L12.0931288,3.8048449 L12.0931288,0.962689533 C12.0931288,0.698806005 12.1218457,0.532256566 12.1792796,0.463041214 C12.2665791,0.357055207 12.4055691,0.304062204 12.5962496,0.304062204 L12.5962496,0.304062204 L12.7651053,0.304062204 L12.7651053,0.184016829 L10.76296,0.184016829 L10.76296,0.304062204 L10.9283695,0.304062204 C11.0386426,0.304062204 11.144321,0.330017961 11.2454046,0.381929474 C11.3166226,0.42086311 11.3637184,0.467367174 11.386692,0.521441667 C11.4165576,0.592819998 11.4314904,0.73990262 11.4314904,0.962689533 L11.4314904,0.962689533 L11.4314904,3.8048449 C11.4314904,4.06872843 11.4039221,4.23527787 11.3487856,4.30449322 C11.2614861,4.41047923 11.1213474,4.46347223 10.9283695,4.46347223 L10.9283695,4.46347223 L10.76296,4.46347223 L10.76296,4.58351761 L12.7651053,4.58351761 Z M17.0118679,4.65489594 L17.0118679,0.946467185 C17.0118679,0.699887495 17.0371388,0.541989975 17.0876806,0.472774623 C17.1703854,0.360299677 17.3105241,0.304062204 17.5080967,0.304062204 L17.5080967,0.304062204 L17.6735063,0.304062204 L17.6735063,0.184016829 L16.0469786,0.184016829 L16.0469786,0.304062204 L16.2089422,0.304062204 C16.3927306,0.304062204 16.5271259,0.349484778 16.612128,0.440329927 C16.676454,0.507382299 16.708617,0.676094718 16.708617,0.946467185 L16.708617,0.946467185 L16.708617,3.48364241 L13.8518554,0.184016829 L12.5837152,0.184016829 L12.5837152,0.304062204 C12.7192591,0.304062204 12.8203428,0.313795613 12.8869661,0.33326243 C13.0225101,0.374359045 13.1253167,0.41870013 13.1953861,0.466285684 C13.2654554,0.513871238 13.3682621,0.612286816 13.503806,0.761532418 L13.503806,0.761532418 L13.503806,3.82106725 C13.503806,4.06764694 13.4785351,4.22554446 13.4279933,4.29475981 C13.3452885,4.40723476 13.2040011,4.46347223 13.0041312,4.46347223 L13.0041312,4.46347223 L12.8421677,4.46347223 L12.8421677,4.58351761 L14.4686954,4.58351761 L14.4686954,4.46347223 L14.3032858,4.46347223 C14.1217947,4.46347223 13.9873994,4.41804966 13.9000999,4.32720451 C13.8380713,4.26015214 13.807057,4.09143972 13.807057,3.82106725 L13.807057,3.82106725 L13.807057,1.11193513 L16.8878107,4.65489594 L17.0118679,4.65489594 Z M20.0421808,4.68409617 C20.4717863,4.68409617 20.8428092,4.59325102 21.1552495,4.41156072 C21.4676899,4.22987042 21.7410752,3.94327561 21.9754055,3.55177627 L21.9754055,3.55177627 L21.8685784,3.48688688 C21.5905984,3.85026748 21.3355919,4.09306195 21.103559,4.21527031 C20.8715261,4.33747866 20.6038842,4.39858284 20.3006333,4.39858284 C19.9514352,4.39858284 19.6407179,4.32071557 19.3684813,4.16498103 C19.0962447,4.00924649 18.8923544,3.78537809 18.7568104,3.49337582 C18.6212664,3.20137356 18.5534944,2.85637829 18.5534944,2.45839002 C18.5534944,1.97604554 18.6252868,1.57264982 18.7688715,1.24820286 C18.9124562,0.923755898 19.1094545,0.687450362 19.3598662,0.53928625 C19.610278,0.391122138 19.8905553,0.317040082 20.2006983,0.317040082 C20.5705726,0.317040082 20.8876076,0.41545566 21.1518035,0.612286816 C21.4159994,0.809117972 21.6193153,1.13140195 21.7617514,1.57913876 L21.7617514,1.57913876 L21.8685784,1.57913876 L21.7617514,0.083438271 L21.6411402,0.083438271 C21.6158693,0.187261298 21.5733682,0.268373038 21.513637,0.326773491 C21.4676899,0.367870106 21.413702,0.388418413 21.3516734,0.388418413 C21.310321,0.388418413 21.2414004,0.364625636 21.1449114,0.317040082 C20.8163896,0.161305541 20.483273,0.083438271 20.1455618,0.083438271 C19.7113616,0.083438271 19.3110474,0.184557574 18.9446192,0.386796179 C18.578191,0.589034784 18.2904472,0.874007364 18.0813879,1.24171392 C17.8723285,1.60942047 17.7677988,2.01281619 17.7677988,2.45190108 C17.7677988,2.99697197 17.9263164,3.47066453 18.2433514,3.87297877 C18.6683622,4.4137237 19.267972,4.68409617 20.0421808,4.68409617 Z M25.7052631,4.58351761 L26.108449,3.48039794 L25.9706076,3.48039794 C25.8212795,3.75077041 25.6753975,3.95300902 25.5329614,4.08711376 C25.4226884,4.18877381 25.3078206,4.25690767 25.1883581,4.29151534 C25.0688956,4.32612302 24.8770664,4.34342686 24.6128705,4.34342686 L24.6128705,4.34342686 L23.8202829,4.34342686 C23.691631,4.34342686 23.6043315,4.33098972 23.5583844,4.30611546 C23.5124373,4.28124119 23.4802743,4.247715 23.4618954,4.2055369 C23.4435166,4.16335879 23.4343272,4.04493565 23.4343272,3.85026748 L23.4343272,3.85026748 L23.4343272,2.39998957 L24.4612451,2.39998957 C24.6565203,2.39998957 24.8012537,2.42161936 24.8954453,2.46487896 C24.9896368,2.50813855 25.0574088,2.5676205 25.0987612,2.64332479 C25.1309242,2.70388822 25.1630872,2.84123743 25.1952502,3.05537243 L25.1952502,3.05537243 L25.3227534,3.05537243 L25.3227534,1.52398277 L25.1952502,1.52398277 C25.181466,1.77488842 25.1148427,1.95008978 24.9953802,2.04958685 C24.9057834,2.12529114 24.7277383,2.16314329 24.4612451,2.16314329 L24.4612451,2.16314329 L23.4343272,2.16314329 L23.4343272,0.424107579 L24.7162515,0.424107579 C24.9482844,0.424107579 25.110248,0.440329927 25.2021422,0.472774623 C25.31701,0.518197198 25.4037352,0.584168079 25.4623177,0.670687269 C25.5209003,0.757206458 25.5743138,0.916185469 25.6225583,1.1476243 L25.6225583,1.1476243 L25.7569536,1.1476243 L25.7052631,0.184016829 L22.1041583,0.184016829 L22.1041583,0.304062204 L22.2695679,0.304062204 C22.4625458,0.304062204 22.6003871,0.347321799 22.6830919,0.433840988 C22.7428232,0.49873038 22.7726888,0.670687269 22.7726888,0.949711655 L22.7726888,0.949711655 L22.7726888,3.80808937 C22.7726888,4.02222437 22.759479,4.16389954 22.7330594,4.23311489 C22.7066398,4.30233024 22.6566723,4.35424176 22.583157,4.38884943 C22.4843707,4.43859797 22.379841,4.46347223 22.2695679,4.46347223 L22.2695679,4.46347223 L22.1041583,4.46347223 L22.1041583,4.58351761 L25.7052631,4.58351761 Z" id="SINCE" fill="#FFFFFF" fill-rule="nonzero"></path>
                            <g id="Group-4" transform="translate(0.000000, 1.397912)">
                                <g id="ara">
                                    <g id="Group" transform="translate(2.683934, 1.351454) rotate(-90.000000) translate(-2.683934, -1.351454) translate(1.130112, -0.620256)"></g>
                                    <g id="Group-9" transform="translate(2.777503, 1.351500) rotate(-90.000000) translate(-2.777503, -1.351500) translate(1.223680, -0.510671)"></g>
                                    <path d="M4.37909277,3.01974394 C4.14336383,3.05816573 3.93107633,2.99460026 3.76764343,2.84034805 C3.6035533,2.68835594 3.50650133,2.46036777 3.46881975,2.27249649 L3.46640988,2.2620435 C3.43486251,2.09762081 3.43902501,2.00636904 3.43902501,2.00636904 C3.42982369,1.64475213 3.56740527,1.31421167 3.73171448,1.1972512 C3.81124014,1.13566332 3.89098488,1.13086059 3.94444014,1.15543924 C4.00030527,1.1845381 4.03207172,1.2379331 4.04696909,1.30404119 C4.07479212,1.43823497 4.05091251,1.58824948 4.07041054,1.70210231 C4.0864033,1.81397754 4.10765396,1.89844899 4.1113783,1.99450349 C4.11641712,2.07332467 4.10633948,2.1123115 4.12255133,2.23124956 C4.13569606,2.33775704 4.16768159,2.46686558 4.20821119,2.58580364 C4.24808356,2.70530673 4.29299475,2.81407432 4.32563751,2.89261299 C4.35784212,2.96917407 4.37909277,3.01974394 4.37909277,3.01974394" id="Fill-1" fill="url(#linearGradient-2)" transform="translate(3.908841, 2.086136) rotate(-90.000000) translate(-3.908841, -2.086136) "></path>
                                    <g id="Group-5" transform="translate(3.813987, 0.694263) rotate(-90.000000) translate(-3.813987, -0.694263) translate(3.107704, -0.182053)"></g>
                                    <mask id="mask-4" fill="white">
                                        <use xlink:href="#path-3"></use>
                                    </mask>
                                    <g id="Clip-4" transform="translate(3.936851, 0.610630) rotate(-90.000000) translate(-3.936851, -0.610630) "></g>
                                    <path d="M3.49030988,1.59705003 C3.61343225,1.27639754 3.68879541,1.01705041 3.71355133,0.837654516 C3.7398408,0.657976113 3.7273533,0.555988843 3.7190283,0.519827152 L3.71859014,0.517284533 C3.71092238,0.473212472 3.71026514,0.450611414 3.71026514,0.450611414 C3.70062567,0.355404462 3.71092238,0.284776158 3.72888685,0.192676851 C3.75079475,0.0985999509 3.73830725,-0.0367238781 3.75802435,-0.174872839 C3.76963554,-0.243241037 3.79417238,-0.302286298 3.84215067,-0.341555635 C3.88925264,-0.379977432 3.95979606,-0.390995447 4.03932172,-0.351726111 C4.20209738,-0.278272675 4.36443488,0.0194962513 4.3808658,0.379983111 C4.38875264,0.519262125 4.37845593,0.66390889 4.34603225,0.804035444 C4.31163685,0.952072368 4.2654112,1.05518969 4.21151777,1.15265675 C4.10263554,1.34278814 3.97381712,1.44788306 3.8647158,1.50692832 C3.75495725,1.56625609 3.66097238,1.58433694 3.59502962,1.59224731 C3.52908685,1.59987517 3.49030988,1.59705003 3.49030988,1.59705003" id="Fill-3" fill="url(#linearGradient-5)" mask="url(#mask-4)" transform="translate(3.936851, 0.610626) rotate(-90.000000) translate(-3.936851, -0.610626) "></path>
                                    <g id="Group-8" mask="url(#mask-4)">
                                        <g transform="translate(2.683934, 1.461039) rotate(-90.000000) translate(-2.683934, -1.461039) translate(2.118908, -0.291592)"></g>
                                    </g>
                                    <mask id="mask-7" fill="white">
                                        <use xlink:href="#path-6"></use>
                                    </mask>
                                    <g id="Clip-7" transform="translate(2.801290, 1.403914) rotate(-90.000000) translate(-2.801290, -1.403914) "></g>
                                    <path d="M2.9527714,3.54665138 C2.61319903,2.45389027 2.5146135,1.58770476 2.48087534,1.15630708 L2.47999903,1.14331148 C2.46553982,0.943574634 2.46510166,0.836502126 2.46510166,0.836502126 C2.44428916,-0.026293227 2.60684574,-0.733141286 2.79218653,-0.738823641 C2.97927995,-0.744159302 3.11751876,-0.0754505261 3.13679771,0.752595701 C3.15103784,1.39474823 3.09911613,2.08577555 3.05135692,2.62481076 C3.00184508,3.16328095 2.9527714,3.54665138 2.9527714,3.54665138" id="Fill-6" fill="url(#linearGradient-8)" mask="url(#mask-7)" transform="translate(2.801246, 1.403914) rotate(-90.000000) translate(-2.801246, -1.403914) "></path>
                                </g>
                                <g id="Group" transform="translate(28.031589, 0.000000)">
                                    <g id="ara-copy" transform="translate(2.385667, 1.314474) rotate(-180.000000) translate(-2.385667, -1.314474) ">
                                        <g id="Group" transform="translate(2.385719, 1.351454) rotate(-90.000000) translate(-2.385719, -1.351454) translate(1.004544, -0.620256)"></g>
                                        <g id="Group-9" transform="translate(2.468891, 1.351500) rotate(-90.000000) translate(-2.468891, -1.351500) translate(1.087716, -0.510671)"></g>
                                        <path d="M3.94477714,2.91600976 C3.70904819,2.95016247 3.49676069,2.89365983 3.3333278,2.75654675 C3.16923767,2.62144265 3.07218569,2.4187865 3.03450411,2.25178981 L3.03209424,2.24249826 C3.00054688,2.09634476 3.00470938,2.01523208 3.00470938,2.01523208 C2.99550806,1.69379482 3.13308964,1.39998108 3.29739885,1.29601622 C3.37692451,1.24127143 3.45666924,1.23700234 3.51012451,1.25885003 C3.56598964,1.28471569 3.59775609,1.33217791 3.61265345,1.39094066 C3.64047648,1.51022401 3.61659688,1.64357025 3.6360949,1.74477276 C3.65208767,1.84421741 3.67333832,1.91930314 3.67706267,2.00468492 C3.68210148,2.07474819 3.67202385,2.10940315 3.68823569,2.21512587 C3.70138043,2.30979919 3.73336595,2.42456233 3.77389556,2.53028505 C3.81376793,2.63651002 3.85867911,2.73319232 3.89132188,2.80300447 C3.92352648,2.87105877 3.94477714,2.91600976 3.94477714,2.91600976" id="Fill-1" fill="url(#linearGradient-9)" transform="translate(3.474525, 2.086136) rotate(-90.000000) translate(-3.474525, -2.086136) "></path>
                                        <g id="Group-5" transform="translate(3.390211, 0.694263) rotate(-90.000000) translate(-3.390211, -0.694263) translate(2.762404, -0.182053)"></g>
                                        <mask id="mask-11" fill="white">
                                            <use xlink:href="#path-10"></use>
                                        </mask>
                                        <g id="Clip-4" transform="translate(3.499423, 0.610630) rotate(-90.000000) translate(-3.499423, -0.610630) "></g>
                                        <path d="M3.05288197,1.48744735 C3.17600434,1.20242291 3.25136749,0.971892131 3.27612342,0.812429117 C3.30241289,0.652714981 3.28992539,0.56205963 3.28160039,0.529915904 L3.28116223,0.527655798 C3.27349447,0.488480633 3.27283723,0.468390804 3.27283723,0.468390804 C3.26319776,0.383762402 3.27349447,0.320981688 3.29145894,0.239115637 C3.31336684,0.155491726 3.30087934,0.0352038775 3.32059644,-0.0875951992 C3.33220763,-0.14836693 3.35674447,-0.200851607 3.40472276,-0.235757684 C3.45182473,-0.269910393 3.52236815,-0.279704184 3.60189381,-0.244798107 C3.76466947,-0.179506164 3.92700697,0.0851773258 3.94343789,0.40561009 C3.95132473,0.529413658 3.94102802,0.657988561 3.90860434,0.782545497 C3.87420894,0.914133874 3.82798328,1.00579372 3.77408986,1.0924311 C3.66520763,1.26143678 3.5363892,1.35485449 3.42728789,1.40733916 C3.31752934,1.46007496 3.22354447,1.47614683 3.1576017,1.48317827 C3.09165894,1.48995858 3.05288197,1.48744735 3.05288197,1.48744735" id="Fill-3" fill="url(#linearGradient-12)" mask="url(#mask-11)" transform="translate(3.499423, 0.610626) rotate(-90.000000) translate(-3.499423, -0.610626) "></path>
                                        <g id="Group-8" mask="url(#mask-11)">
                                            <g transform="translate(2.385719, 1.461039) rotate(-90.000000) translate(-2.385719, -1.461039) translate(1.883474, -0.291592)"></g>
                                        </g>
                                        <mask id="mask-14" fill="white">
                                            <use xlink:href="#path-13"></use>
                                        </mask>
                                        <g id="Clip-7" transform="translate(2.490036, 1.403914) rotate(-90.000000) translate(-2.490036, -1.403914) "></g>
                                        <path d="M2.64152184,3.30856943 C2.30194947,2.33722623 2.20336394,1.56728355 2.16962578,1.18381895 L2.16874947,1.1722673 C2.15429026,0.994723437 2.1538521,0.899547875 2.1538521,0.899547875 C2.1330396,0.132618673 2.29559618,-0.495690713 2.48093697,-0.500741696 C2.66803039,-0.505484505 2.80626921,0.0889232956 2.82554815,0.824964387 C2.83978828,1.39576664 2.78786657,2.01001314 2.74010736,2.48915555 C2.69059552,2.96779572 2.64152184,3.30856943 2.64152184,3.30856943" id="Fill-6" fill="url(#linearGradient-15)" mask="url(#mask-14)" transform="translate(2.489996, 1.403914) rotate(-90.000000) translate(-2.489996, -1.403914) "></path>
                                    </g>
                                </g>
                            </g>
                        </g>
                        <path d="M8.13581942,17.7219978 L8.13581942,17.4528559 C7.696334,17.4431571 7.40493606,17.4019372 7.2616256,17.3291961 C7.11831513,17.2564551 7.02396908,17.1521929 6.97858743,17.0164096 C6.93320579,16.8806263 6.91051496,16.5363186 6.91051496,15.9834866 L6.91051496,15.9834866 L6.91051496,7.6546357 L6.6740527,7.6546357 L4.30943007,8.8257667 L4.41691291,9.05126397 C4.73219593,8.90093246 4.97821223,8.8257667 5.1549618,8.8257667 C5.2791642,8.8257667 5.38545279,8.86213723 5.47382758,8.93487828 C5.56220236,9.00761934 5.62310931,9.12158033 5.65654842,9.27676124 C5.70431857,9.4804362 5.72820365,9.94112955 5.72820365,10.6588413 L5.72820365,15.9834866 C5.72820365,16.5751138 5.70193006,16.9303327 5.64938289,17.049143 C5.59683572,17.1679534 5.50368392,17.2625168 5.36992749,17.3328332 C5.23617106,17.4031495 4.9399961,17.4431571 4.48140262,17.4528559 L4.48140262,17.4528559 L4.48140262,17.7219978 L8.13581942,17.7219978 Z M11.1726856,17.9256725 C12.0803186,17.9256725 12.9186848,17.6686542 13.6877842,17.1546174 C14.6336333,16.5290443 15.3716822,15.7422286 15.9019309,14.7941702 C16.4321796,13.8461118 16.697304,12.8240999 16.697304,11.7281347 C16.697304,10.5109344 16.3485818,9.48771027 15.6511376,8.65846225 C15.0826728,7.98924455 14.3995595,7.6546357 13.601798,7.6546357 C12.6559489,7.6546357 11.8892379,8.06441031 11.301665,8.88395952 C10.8144095,9.55802662 10.5707817,10.3266571 10.5707817,11.1898509 C10.5707817,12.0772918 10.8144095,12.7889418 11.301665,13.3248009 C11.7889206,13.86066 12.374105,14.1285895 13.0572182,14.1285895 C13.6638992,14.1285895 14.3422354,13.8836946 15.0922268,13.3939049 C14.8963692,14.2425505 14.5488413,15.0208798 14.0496432,15.7288927 C13.5504451,16.4369056 13.0333331,16.9327572 12.4983074,17.2164473 C11.9632817,17.5001374 11.3852628,17.6468318 10.7642508,17.6565306 L10.7642508,17.6565306 L10.7642508,17.9256725 L11.1726856,17.9256725 Z M13.6304601,13.4666457 C13.1766436,13.4666457 12.7944824,13.2581214 12.4839764,12.8410727 C12.058822,12.2639937 11.8462448,11.4638421 11.8462448,10.440618 C11.8462448,9.67441224 12.0062748,9.09733324 12.3263349,8.70938096 C12.6463949,8.32142869 13.0190021,8.12745255 13.4441565,8.12745255 C13.8119867,8.12745255 14.1404065,8.27293466 14.4294159,8.56389886 C14.7184253,8.85486307 14.9417508,9.27312411 15.0993923,9.81868199 C15.2570338,10.3642399 15.3358546,10.8722149 15.3358546,11.342607 C15.3358546,11.7208605 15.2928614,12.2251984 15.2068752,12.8556209 C14.9775784,13.049597 14.7124541,13.1999285 14.4115021,13.3066154 C14.1105501,13.4133023 13.8502028,13.4666457 13.6304601,13.4666457 Z M21.0526264,17.896576 C21.8981582,17.896576 22.5812714,17.6504688 23.101966,17.1582543 C23.6226607,16.6660399 23.8830081,16.0732003 23.8830081,15.3797356 C23.8830081,14.831753 23.7014815,14.3104421 23.3384283,13.8158029 C23.0661384,13.4375494 22.5096161,12.9186633 21.6688614,12.2591444 C22.4857311,11.7402582 23.0231453,11.2892637 23.2811041,10.9061608 C23.539063,10.5230579 23.6680424,10.1472291 23.6680424,9.77867446 C23.6680424,9.22584246 23.4291916,8.73362799 22.9514901,8.30203108 C22.4737885,7.87043416 21.8432225,7.6546357 21.059792,7.6546357 C20.2524763,7.6546357 19.6051908,7.88619472 19.1179352,8.34931276 C18.6306796,8.8124308 18.3870518,9.36405046 18.3870518,10.0041717 C18.3870518,10.4212204 18.4981174,10.8237209 18.7202487,11.2116732 C18.9423799,11.5996255 19.4379952,12.1136623 20.2070947,12.7537835 C19.5000964,13.2726697 19.0020926,13.7466989 18.7130831,14.1758711 C18.4240737,14.6050434 18.279569,15.0378526 18.279569,15.4742989 C18.279569,16.0319804 18.4849806,16.5460171 18.895804,17.0164093 C19.4117216,17.6031871 20.1306625,17.896576 21.0526264,17.896576 Z M21.3320818,11.9754541 L20.156936,10.9861758 C19.9228623,10.7582539 19.74253,10.5182084 19.615939,10.2660394 C19.4893481,10.0138705 19.4260527,9.76170149 19.4260527,9.50953251 C19.4260527,9.12642965 19.5789172,8.79182081 19.8846462,8.50570602 C20.1903751,8.21959122 20.5868674,8.07653382 21.074123,8.07653382 C21.5613786,8.07653382 21.9459283,8.22080357 22.2277722,8.50934307 C22.5096161,8.79788257 22.6505381,9.196746 22.6505381,9.70593335 C22.6505381,10.0890362 22.5741058,10.4321315 22.4212414,10.7352192 C22.2683769,11.0383069 21.9053237,11.4517186 21.3320818,11.9754541 L21.3320818,11.9754541 Z M21.1672748,17.5037747 C20.6465801,17.5037747 20.217843,17.3158603 19.8810634,16.9400315 C19.5442838,16.5642027 19.375894,16.0635017 19.375894,15.4379286 C19.375894,14.9723858 19.4714343,14.5395766 19.6625149,14.1395007 C19.8535956,13.7394249 20.147382,13.3696579 20.5438743,13.0301996 C21.5757096,13.8594477 22.2612113,14.5310901 22.6003794,15.0451269 C22.781906,15.3215429 22.8726693,15.6343295 22.8726693,15.9834865 C22.8726693,16.4053847 22.7174163,16.7642406 22.4069103,17.0600542 C22.0964043,17.3558678 21.6831925,17.5037747 21.1672748,17.5037747 Z M30.3378288,17.7219978 L30.3378288,17.4528559 C29.8983434,17.4431571 29.6069455,17.4019372 29.463635,17.3291961 C29.3203245,17.2564551 29.2259785,17.1521929 29.1805968,17.0164096 C29.1352152,16.8806263 29.1125244,16.5363186 29.1125244,15.9834866 L29.1125244,15.9834866 L29.1125244,7.6546357 L28.8760621,7.6546357 L26.5114395,8.8257667 L26.6189223,9.05126397 C26.9342053,8.90093246 27.1802216,8.8257667 27.3569712,8.8257667 C27.4811736,8.8257667 27.5874622,8.86213723 27.675837,8.93487828 C27.7642118,9.00761934 27.8251187,9.12158033 27.8585578,9.27676124 C27.906328,9.4804362 27.930213,9.94112955 27.930213,10.6588413 L27.930213,10.6588413 L27.930213,15.9834866 C27.930213,16.5751138 27.9039395,16.9303327 27.8513923,17.049143 C27.7988451,17.1679534 27.7056933,17.2625168 27.5719369,17.3328332 C27.4381805,17.4031495 27.1420055,17.4431571 26.683412,17.4528559 L26.683412,17.4528559 L26.683412,17.7219978 L30.3378288,17.7219978 Z" id="1981" fill="#FFFFFF" fill-rule="nonzero"></path>
                    </g>
                </g>
                <rect id="Rectangle" fill="url(#linearGradient-16)" x="4.88498131e-15" y="3.55271368e-15" width="1" height="37"></rect>
            </g>
            <g id="Group" transform="translate(-0.000000, 0.000000)">
                <g id="Group-3-Copy" transform="translate(-0.000000, 0.000000)">
                    <mask id="mask-18" fill="white">
                        <use xlink:href="#path-17"></use>
                    </mask>
                    <g id="Clip-2"></g>
                    <path d="M101.600677,27.7319625 L108.869908,22.7406625 L110.338523,24.3621875 C109.946215,24.8385625 109.664677,25.2760875 109.494831,25.6775375 C109.321292,26.0808375 109.236369,26.4933875 109.236369,26.9198125 C109.236369,28.4284875 109.950831,29.6772375 111.379754,30.6697625 C112.806831,31.6604375 114.662215,32.1553125 116.947754,32.1553125 C119.443754,32.1553125 121.438523,31.6326875 122.931138,30.5818875 C124.424677,29.5338625 125.170523,28.1482125 125.170523,26.4295625 C125.170523,25.4934625 124.925908,24.6674375 124.435754,23.9440875 C123.947446,23.2244375 123.203446,22.5926625 122.209292,22.0506125 C121.555754,21.7074375 120.079754,21.2652875 117.7776,20.7241625 C116.146523,20.3476875 114.850523,20.0276375 113.886831,19.7658625 C110.117908,18.7492875 107.453908,17.4792625 105.894831,15.9548625 C104.3376,14.4304625 103.5576,12.4139625 103.5576,9.9062875 C103.5576,7.0545125 104.7816,4.6902125 107.230523,2.8143125 C109.6776,0.9393375 112.818831,0.0004625 116.654215,0.0004625 C119.900677,0.0004625 122.723446,0.5536125 125.122523,1.6589875 C127.522523,2.7662125 129.592985,4.4737625 131.340369,6.7853375 L125.734523,12.0226875 L124.216985,10.6703375 C124.362831,10.3095875 124.466215,10.0154375 124.522523,9.7851125 C124.578831,9.5547875 124.616677,9.3263125 124.631446,9.0969125 C124.631446,7.8352125 123.8856,6.7575875 122.392062,5.8631125 C120.899446,4.9714125 119.051446,4.5246375 116.848985,4.5246375 C114.808985,4.5246375 113.189908,4.9214625 111.989908,5.7169625 C110.789908,6.5124625 110.191754,7.5734375 110.191754,8.9008125 C110.191754,10.9163875 112.606523,12.4824125 117.436062,13.5970375 C118.693292,13.8921125 119.662523,14.1215125 120.348369,14.2843125 C124.444985,15.3341875 127.409908,16.7281625 129.245908,18.4634625 C131.080985,20.2006125 131.999446,22.4714875 131.999446,25.2742375 C131.999446,28.7818375 130.649908,31.6132625 127.948985,33.7675875 C125.247138,35.9228375 121.628677,37.0013875 117.092677,37.0013875 C113.453908,37.0013875 110.422523,36.2761875 108.000369,34.8257875 C105.578215,33.3744625 103.444062,31.0101625 101.600677,27.7319625 L101.600677,27.7319625 Z M78.5929846,16.5459375 L82.2659077,16.5459375 C86.0837538,16.5459375 88.6009846,16.1111875 89.8157538,15.2426125 C91.0323692,14.3740375 91.6406769,12.8810875 91.6406769,10.7683875 C91.6406769,8.9812875 91.0074462,7.5845375 89.7419077,6.5753625 C88.4772923,5.5689625 86.7216,5.0648375 84.4683692,5.0648375 L78.5939077,5.0648375 L78.5939077,16.5459375 L78.5929846,16.5459375 Z M69.7332923,36.0403125 L69.7332923,33.8785875 C70.5160615,33.8119875 71.0542154,33.6112625 71.3486769,33.2754875 C71.6412923,32.9406375 71.7899077,32.3218125 71.7899077,31.4190125 L71.7899077,5.4820125 C71.7899077,4.5653375 71.6422154,3.9428125 71.3486769,3.6144375 C71.0542154,3.2869875 70.5160615,3.0890375 69.7332923,3.0242875 L69.7332923,0.8348125 L86.1077538,0.8348125 C89.9099077,0.8348125 92.8831385,1.6885875 95.0283692,3.3924375 C97.1745231,5.0962875 98.2462154,7.4235875 98.2462154,10.3734125 C98.2462154,12.7663875 97.5529846,14.8115625 96.1656,16.5080125 C94.7791385,18.2044625 92.9191385,19.2728375 90.5856,19.7159125 L97.6360615,31.5670125 C98.1409846,32.3847125 98.6292923,32.9841125 99.1046769,33.3605875 C99.5772923,33.7370625 100.140369,33.9757125 100.792985,34.0728375 L100.792985,36.0384625 L92.4225231,36.0384625 L83.6597538,20.6742125 L78.6419077,20.6742125 L78.6419077,30.2387125 C78.6419077,31.7797625 78.7840615,32.7500875 79.0702154,33.1496875 C79.3554462,33.5539125 79.8825231,33.7944125 80.6496,33.8767375 L80.6496,36.0384625 L69.7332923,36.0384625 L69.7332923,36.0403125 Z M59.3311385,31.7631125 C61.2548308,31.7631125 62.5692923,31.5420375 63.2717538,31.0998875 C63.9723692,30.6558875 64.4625231,29.8548375 64.7394462,28.6902625 L67.1136,28.6902625 L67.1136,36.0403125 L37.7920615,36.0403125 L37.7920615,33.8785875 C38.5757538,33.8119875 39.1129846,33.6112625 39.4074462,33.2754875 C39.6991385,32.9406375 39.8477538,32.3218125 39.8477538,31.4190125 L39.8477538,5.4820125 C39.8477538,4.5653375 39.6991385,3.9428125 39.4074462,3.6144375 C39.1129846,3.2869875 38.5757538,3.0890375 37.7920615,3.0242875 L37.7920615,0.8348125 L65.7926769,0.8348125 L65.7926769,7.7926625 L63.6391385,7.7926625 C63.3456,6.7936625 62.9412923,6.1091625 62.4271385,5.7410125 C61.9120615,5.3719375 60.7997538,5.1869375 59.0856,5.1869375 L46.6019077,5.1869375 L46.6019077,14.0882125 L55.7329846,14.0882125 C57.5265231,14.0882125 58.6942154,13.9244875 59.2332923,13.5961125 C59.7723692,13.2668125 60.1388308,12.6618625 60.3345231,11.7757125 L62.3412923,11.7757125 L62.3412923,20.4790375 L60.3345231,20.4790375 C60.2034462,19.5790125 59.9228308,18.9666625 59.4908308,18.6484625 C59.0579077,18.3274875 58.2372923,18.1683875 57.0299077,18.1683875 L46.6019077,18.1683875 L46.6019077,31.7631125 L59.3311385,31.7631125 Z M34.2169846,36.0403125 C31.0194462,36.3372375 28.5188308,36.5444375 26.7160615,36.6683875 C24.9114462,36.7923375 23.5222154,36.8515375 22.5428308,36.8515375 C18.9852923,36.8515375 15.9991385,36.5287125 13.5834462,35.8821375 C11.1686769,35.2337125 9.02344615,34.1977125 7.14683077,32.7713625 C4.86129231,31.0342125 3.10006154,28.8465875 1.85944615,26.2075625 C0.619753846,23.5676125 0.000369230769,20.7001125 0.000369230769,17.6022875 C0.000369230769,12.4074875 1.63606154,8.1737625 4.90744615,4.9038875 C8.17790769,1.6358625 12.4176,0.0004625 17.6219077,0.0004625 C20.7723692,0.0004625 23.5656,0.4296625 26.0052923,1.2908375 C28.4459077,2.1520125 30.7674462,3.5154625 32.9689846,5.3830375 L26.5074462,11.9237125 L24.5505231,10.5223375 C24.7296,10.0626125 24.8597538,9.6861375 24.9419077,9.3901375 C25.0240615,9.0959875 25.0628308,8.8499375 25.0628308,8.6538375 C25.0628308,7.5725125 24.3871385,6.6465875 23.0320615,5.8760625 C21.6779077,5.1055375 19.9969846,4.7207375 17.9892923,4.7207375 C14.6449846,4.7207375 11.9846769,5.8390625 10.0102154,8.0757125 C8.03575385,10.3123625 7.04898462,13.3408125 7.04898462,17.1592125 C7.04898462,21.7666375 8.46867692,25.4407375 11.3080615,28.1852125 C14.1465231,30.9306125 17.9569846,32.3033125 22.7376,32.3033125 C23.3099077,32.3033125 24.2385231,32.2792625 25.5271385,32.2293125 C25.7080615,32.2293125 25.8465231,32.2219125 25.9443692,32.2061875 L25.9443692,20.9951875 C25.9443692,20.0775875 25.7966769,19.4559875 25.5031385,19.1257625 C25.2096,18.7992375 24.6714462,18.5938875 23.8877538,18.5115625 L23.8877538,16.3470625 L34.2160615,16.3470625 L34.2160615,18.5115625 C33.4979077,18.6419875 33.0132923,18.8639875 32.7603692,19.1757125 C32.5065231,19.4874375 32.3809846,20.0933125 32.3809846,20.9942625 L32.3809846,31.6160375 C32.3809846,32.6982875 32.4908308,33.3541125 32.7114462,33.5835125 C32.9302154,33.8119875 33.4332923,33.9932875 34.2160615,34.1237125 L34.2160615,36.0403125 L34.2169846,36.0403125 Z" id="Fill-1" fill="#2C3393" mask="url(#mask-18)"></path>
                </g>
            </g>
        </g>
    </g>
</svg>