<?xml version="1.0" encoding="UTF-8"?>
<svg width="23px" height="20px" viewBox="0 0 23 20" version="1.1" xmlns="http://www.w3.org/2000/svg" xmlns:xlink="http://www.w3.org/1999/xlink">
    <title>Shopping-cart</title>
    <defs>
        <filter id="filter-1">
            <feColorMatrix in="SourceGraphic" type="matrix" values="0 0 0 0 0.172549 0 0 0 0 0.200000 0 0 0 0 0.580392 0 0 0 1.000000 0"></feColorMatrix>
        </filter>
    </defs>
    <g id="Page-1" stroke="none" stroke-width="1" fill="none" fill-rule="evenodd">
        <g filter="url(#filter-1)" id="Shopping-cart">
            <g>
                <path d="M9.329375,15 C8.14041451,15.0078773 7.18224563,15.9707272 7.18749955,17.1523175 C7.19279683,18.3339078 8.15952574,19.2882697 9.34850975,19.2856668 C10.5374938,19.2830532 11.5,18.324459 11.5,17.1428571 C11.5,16.5720523 11.2708649,16.024832 10.8633752,15.6225551 C10.4558855,15.2202783 9.90373466,14.9961946 9.329375,15 L9.329375,15 Z M9.329375,17.8571429 C8.93242034,17.8571429 8.610625,17.5373462 8.610625,17.1428571 C8.610625,16.748368 8.93242034,16.4285714 9.329375,16.4285714 C9.72632966,16.4285714 10.048125,16.748368 10.048125,17.1428571 C10.048125,17.5373462 9.72632966,17.8571429 9.329375,17.8571429 Z" id="Shape" fill="#000000" fill-rule="nonzero"></path>
                <path d="M15.079375,15 C13.8904145,15.0078773 12.9322456,15.9707272 12.9374995,17.1523175 C12.9427968,18.3339078 13.9095257,19.2882697 15.0985098,19.2856668 C16.2874938,19.2830532 17.25,18.324459 17.25,17.1428571 C17.25,16.5720523 17.0208649,16.024832 16.6133752,15.6225551 C16.2058855,15.2202783 15.6537347,14.9961946 15.079375,15 L15.079375,15 Z M15.079375,17.8571429 C14.6824203,17.8571429 14.360625,17.5373462 14.360625,17.1428571 C14.360625,16.748368 14.6824203,16.4285714 15.079375,16.4285714 C15.4763297,16.4285714 15.798125,16.748368 15.798125,17.1428571 C15.798125,17.5373462 15.4763297,17.8571429 15.079375,17.8571429 Z" id="Shape" fill="#000000" fill-rule="nonzero"></path>
                <path d="M5.246875,2.85714286 L4.844375,0.714285714 L2.07,0.714285714 C1.67304534,0.714285714 1.35125,1.03408232 1.35125,1.42857143 C1.35125,1.82306054 1.67304534,2.14285714 2.07,2.14285714 L3.65125,2.14285714 L5.908125,14.2 L17.408125,14.2 C17.8050797,14.2 18.126875,13.8802034 18.126875,13.4857143 C18.126875,13.0912252 17.8050797,12.7714286 17.408125,12.7714286 L7.10125,12.7714286 L6.856875,11.4285714 L18.94625,11.4285714 C19.6537584,11.4387942 20.2635356,10.9358226 20.38375,10.2428571 L21.64875,2.85714286 L5.246875,2.85714286 Z M18.94625,10 L6.58375,10 L5.5775,4.28571429 L19.9525,4.28571429 L18.94625,10 Z" id="Shape" fill="#000000" fill-rule="nonzero"></path>
            </g>
        </g>
    </g>
</svg>